<mxfile host="app.diagrams.net" modified="2024-03-06T03:11:45.494Z" agent="Mozilla/5.0 (Windows NT 10.0; Win64; x64) AppleWebKit/537.36 (KHTML, like Gecko) Chrome/122.0.0.0 Safari/537.36" etag="7Fm70yBpFujv9ePiLrb6" version="24.0.2" type="github">
  <diagram name="PÃ¡gina-1" id="W_Ezgoi-S1Ga9tkqL3iD">
    <mxGraphModel dx="1707" dy="506" grid="1" gridSize="10" guides="1" tooltips="1" connect="1" arrows="1" fold="1" page="1" pageScale="1" pageWidth="827" pageHeight="1169" math="0" shadow="0">
      <root>
        <mxCell id="0" />
        <mxCell id="1" parent="0" />
        <mxCell id="AsFd2y1bnzHScgN-mQjk-1" value="pedidos" style="rounded=0;whiteSpace=wrap;html=1;" vertex="1" parent="1">
          <mxGeometry x="354" y="230" width="120" height="60" as="geometry" />
        </mxCell>
        <mxCell id="AsFd2y1bnzHScgN-mQjk-2" value="id_pedidos" style="ellipse;whiteSpace=wrap;html=1;" vertex="1" parent="1">
          <mxGeometry x="550" y="130" width="120" height="80" as="geometry" />
        </mxCell>
        <mxCell id="AsFd2y1bnzHScgN-mQjk-3" value="id_clientes" style="ellipse;whiteSpace=wrap;html=1;" vertex="1" parent="1">
          <mxGeometry x="60" y="130" width="120" height="80" as="geometry" />
        </mxCell>
        <mxCell id="AsFd2y1bnzHScgN-mQjk-4" value="clientes" style="rounded=0;whiteSpace=wrap;html=1;" vertex="1" parent="1">
          <mxGeometry x="-110" y="230" width="120" height="60" as="geometry" />
        </mxCell>
        <mxCell id="AsFd2y1bnzHScgN-mQjk-13" style="edgeStyle=orthogonalEdgeStyle;rounded=0;orthogonalLoop=1;jettySize=auto;html=1;entryX=1;entryY=0.5;entryDx=0;entryDy=0;strokeColor=default;align=center;verticalAlign=middle;fontFamily=Helvetica;fontSize=11;fontColor=default;labelBackgroundColor=default;endArrow=none;endFill=0;" edge="1" parent="1" source="AsFd2y1bnzHScgN-mQjk-5" target="AsFd2y1bnzHScgN-mQjk-4">
          <mxGeometry relative="1" as="geometry" />
        </mxCell>
        <mxCell id="AsFd2y1bnzHScgN-mQjk-5" value="nome_completo" style="ellipse;whiteSpace=wrap;html=1;" vertex="1" parent="1">
          <mxGeometry x="60" y="220" width="120" height="80" as="geometry" />
        </mxCell>
        <mxCell id="AsFd2y1bnzHScgN-mQjk-6" value="endereco" style="ellipse;whiteSpace=wrap;html=1;" vertex="1" parent="1">
          <mxGeometry x="60" y="310" width="120" height="80" as="geometry" />
        </mxCell>
        <mxCell id="AsFd2y1bnzHScgN-mQjk-15" style="edgeStyle=orthogonalEdgeStyle;rounded=0;orthogonalLoop=1;jettySize=auto;html=1;entryX=0.75;entryY=1;entryDx=0;entryDy=0;strokeColor=default;align=center;verticalAlign=middle;fontFamily=Helvetica;fontSize=11;fontColor=default;labelBackgroundColor=default;endArrow=none;endFill=0;" edge="1" parent="1" source="AsFd2y1bnzHScgN-mQjk-7" target="AsFd2y1bnzHScgN-mQjk-4">
          <mxGeometry relative="1" as="geometry" />
        </mxCell>
        <mxCell id="AsFd2y1bnzHScgN-mQjk-7" value="contato" style="ellipse;whiteSpace=wrap;html=1;" vertex="1" parent="1">
          <mxGeometry x="60" y="400" width="120" height="80" as="geometry" />
        </mxCell>
        <mxCell id="AsFd2y1bnzHScgN-mQjk-8" value="" style="ellipse;whiteSpace=wrap;html=1;" vertex="1" parent="1">
          <mxGeometry x="550" y="220" width="120" height="80" as="geometry" />
        </mxCell>
        <mxCell id="AsFd2y1bnzHScgN-mQjk-9" value="" style="ellipse;whiteSpace=wrap;html=1;" vertex="1" parent="1">
          <mxGeometry x="550" y="310" width="120" height="80" as="geometry" />
        </mxCell>
        <mxCell id="AsFd2y1bnzHScgN-mQjk-10" value="" style="ellipse;whiteSpace=wrap;html=1;" vertex="1" parent="1">
          <mxGeometry x="550" y="400" width="120" height="80" as="geometry" />
        </mxCell>
        <mxCell id="AsFd2y1bnzHScgN-mQjk-12" style="edgeStyle=orthogonalEdgeStyle;rounded=0;orthogonalLoop=1;jettySize=auto;html=1;endArrow=none;endFill=0;" edge="1" parent="1" source="AsFd2y1bnzHScgN-mQjk-3">
          <mxGeometry relative="1" as="geometry">
            <mxPoint y="230" as="targetPoint" />
          </mxGeometry>
        </mxCell>
        <mxCell id="AsFd2y1bnzHScgN-mQjk-14" style="edgeStyle=orthogonalEdgeStyle;rounded=0;orthogonalLoop=1;jettySize=auto;html=1;strokeColor=default;align=center;verticalAlign=middle;fontFamily=Helvetica;fontSize=11;fontColor=default;labelBackgroundColor=default;endArrow=none;endFill=0;" edge="1" parent="1" source="AsFd2y1bnzHScgN-mQjk-6">
          <mxGeometry relative="1" as="geometry">
            <mxPoint x="-1" y="290" as="targetPoint" />
          </mxGeometry>
        </mxCell>
      </root>
    </mxGraphModel>
  </diagram>
</mxfile>
